<?xml version="1.0" standalone="no"?>
<!DOCTYPE svg PUBLIC "-//W3C//DTD SVG 20010904//EN"
 "http://www.w3.org/TR/2001/REC-SVG-20010904/DTD/svg10.dtd">
<svg version="1.0" xmlns="http://www.w3.org/2000/svg"
 width="500.000000pt" height="500.000000pt" viewBox="0 0 500.000000 500.000000"
 preserveAspectRatio="xMidYMid meet">

<g transform="translate(0.000000,500.000000) scale(0.100000,-0.100000)"
fill="#000000" stroke="none">
<path d="M2685 4618 c-13 -76 -45 -311 -43 -314 2 -1 12 -4 23 -6 17 -3 21 6
31 70 6 39 13 74 16 77 3 3 37 1 76 -5 73 -12 92 -9 92 14 0 14 -17 18 -114
32 l-48 7 5 50 c4 27 8 51 10 54 2 2 45 -3 95 -10 86 -13 91 -13 96 5 5 23 3
24 -99 38 -44 6 -92 13 -107 16 -24 5 -27 2 -33 -28z"/>
<path d="M2323 4548 c-13 -6 -23 -15 -23 -20 0 -4 -4 -8 -10 -8 -5 0 -10 7
-10 15 0 16 -9 19 -26 7 -7 -5 -8 -35 -3 -92 4 -47 8 -102 8 -122 1 -34 4 -38
27 -38 19 0 25 4 20 15 -3 9 -6 52 -7 97 -1 74 1 84 21 100 27 22 63 23 79 4
7 -8 16 -57 21 -108 5 -51 10 -94 10 -95 0 -2 9 -3 21 -3 20 0 21 3 14 93 -3
50 -11 104 -16 118 -17 43 -77 61 -126 37z"/>
<path d="M1826 4541 c-10 -15 5 -41 23 -41 24 0 30 8 24 31 -5 19 -37 26 -47
10z"/>
<path d="M2134 4517 c-3 -8 -18 -11 -45 -9 -100 10 -147 -80 -99 -186 14 -31
29 -47 56 -58 39 -17 85 -11 105 12 19 23 29 16 29 -20 0 -25 -7 -39 -22 -50
-28 -20 -84 -21 -91 -2 -4 9 -14 12 -26 9 -31 -8 -24 -30 16 -52 53 -27 137 2
159 56 13 29 11 45 -11 148 -14 64 -28 127 -31 141 -7 25 -31 33 -40 11z m-22
-48 c23 -13 48 -67 48 -107 0 -35 -33 -72 -65 -72 -72 0 -110 143 -48 179 23
13 40 14 65 0z"/>
<path d="M3271 4478 c-5 -13 -34 -83 -65 -156 -31 -74 -56 -137 -56 -142 0 -4
8 -10 18 -12 16 -5 29 20 86 155 52 124 64 162 54 168 -20 13 -28 11 -37 -13z"/>
<path d="M2982 4467 c-32 -15 -64 -81 -65 -135 0 -40 4 -49 36 -79 40 -36 92
-44 141 -21 33 15 66 83 66 137 0 36 -6 49 -34 77 -29 29 -41 34 -77 33 -24 0
-54 -5 -67 -12z m115 -39 c37 -31 18 -131 -31 -163 -32 -21 -75 -9 -95 26 -33
59 29 169 87 154 15 -4 32 -11 39 -17z"/>
<path d="M1863 4454 c-16 -7 64 -244 82 -244 28 0 26 22 -12 135 -35 109 -42
120 -70 109z"/>
<path d="M3313 4294 c-59 -123 -72 -158 -62 -165 8 -5 16 -9 19 -9 10 0 160
311 155 321 -19 29 -41 0 -112 -147z"/>
<path d="M1700 4393 c-28 -10 -70 -57 -70 -78 0 -11 7 -31 16 -44 15 -21 22
-23 98 -20 l81 4 3 -27 c3 -21 -3 -30 -27 -42 -38 -20 -50 -20 -71 -1 -16 15
-50 11 -50 -5 0 -4 9 -15 20 -25 42 -38 140 -9 168 49 11 22 11 33 2 57 -15
36 -41 43 -125 34 -54 -5 -66 -4 -71 9 -14 36 43 69 89 53 20 -7 32 -6 40 2
26 27 -53 52 -103 34z"/>
<path d="M3430 4272 c-44 -22 -80 -84 -80 -139 0 -33 6 -48 30 -72 57 -57 132
-52 183 12 41 50 48 120 16 161 -21 27 -74 56 -101 56 -7 0 -29 -8 -48 -18z
m105 -47 c31 -30 31 -59 4 -105 -39 -64 -84 -78 -126 -38 -38 36 -23 103 33
147 35 27 59 26 89 -4z"/>
<path d="M1445 4249 c-30 -27 -35 -37 -35 -76 0 -114 109 -190 193 -135 41 28
56 53 57 95 0 35 -2 37 -20 27 -11 -6 -20 -21 -20 -34 0 -30 -39 -66 -72 -66
-14 0 -36 9 -49 20 -27 24 -33 17 74 84 l68 43 -34 37 c-30 31 -40 36 -80 36
-37 0 -53 -6 -82 -31z m123 -23 c11 -11 4 -20 -44 -50 -32 -20 -62 -36 -66
-36 -4 0 -8 15 -8 34 0 63 74 95 118 52z"/>
<path d="M1233 4223 c-21 -8 -15 -23 24 -66 l37 -41 -30 -7 c-42 -8 -52 -15
-69 -50 -45 -86 74 -222 163 -188 40 15 62 39 62 67 0 20 3 22 14 13 10 -9 16
-8 26 4 10 12 -6 36 -95 142 -59 71 -110 129 -114 130 -3 1 -12 -1 -18 -4z
m94 -156 c56 -31 85 -101 56 -134 -27 -31 -54 -35 -90 -13 -106 64 -73 207 34
147z"/>
<path d="M3621 4066 c-28 -62 -51 -118 -51 -123 0 -6 6 -16 14 -22 12 -10 29
-3 89 38 41 28 77 51 81 51 3 0 -13 -38 -36 -85 -38 -75 -41 -87 -27 -100 13
-13 27 -7 124 51 61 36 112 68 114 70 2 2 -2 10 -8 18 -11 13 -24 8 -93 -35
-44 -28 -82 -49 -84 -47 -2 2 16 41 39 86 39 75 41 82 26 98 -16 15 -22 13
-90 -33 -41 -27 -80 -53 -87 -57 -6 -4 4 28 24 71 45 96 50 118 31 126 -11 4
-28 -23 -66 -107z"/>
<path d="M1004 3865 c-5 -13 21 -62 89 -166 l17 -25 -103 33 c-96 31 -103 32
-115 16 -15 -21 -21 -19 139 -68 98 -30 118 -39 128 -61 9 -21 9 -31 -3 -49
-16 -25 -12 -35 14 -35 21 0 43 46 34 74 -10 32 -175 296 -185 296 -6 0 -12
-7 -15 -15z"/>
<path d="M3955 3735 c-55 -35 -101 -68 -103 -73 -1 -5 3 -14 11 -20 10 -9 26
-3 66 24 100 68 153 74 167 20 8 -34 4 -39 -86 -97 -71 -45 -79 -53 -69 -71
10 -19 11 -19 37 -2 63 42 137 84 147 84 26 0 56 -32 53 -58 -2 -21 -20 -38
-80 -77 -76 -49 -93 -70 -64 -81 15 -6 160 85 184 114 6 9 12 26 12 38 0 30
-46 84 -72 84 -16 0 -19 5 -14 28 8 35 -25 89 -59 98 -20 5 -23 9 -14 20 10
13 5 34 -9 34 -4 0 -52 -29 -107 -65z"/>
<path d="M762 3665 c-1 -18 6 -29 29 -40 24 -13 28 -19 19 -30 -14 -17 3 -29
30 -20 14 4 43 -8 93 -39 82 -51 109 -56 131 -24 22 30 20 48 -4 48 -11 0 -20
-4 -20 -10 0 -20 -37 -8 -101 33 -57 37 -65 46 -57 61 14 24 -12 43 -28 21
-15 -20 -24 -19 -54 5 -32 25 -35 25 -38 -5z"/>
<path d="M685 3569 c-7 -22 10 -42 30 -36 19 6 16 36 -4 46 -16 9 -21 7 -26
-10z"/>
<path d="M771 3521 c-10 -18 0 -25 102 -80 105 -56 113 -58 121 -40 5 10 7 21
5 23 -2 2 -52 29 -111 60 -102 54 -107 56 -117 37z"/>
<path d="M630 3459 c-9 -16 -7 -21 12 -28 13 -5 81 -36 152 -70 71 -34 134
-61 141 -61 7 0 16 7 19 16 6 15 -60 50 -261 140 -52 22 -53 23 -63 3z"/>
<path d="M4185 3411 c-44 -11 -71 -27 -94 -57 -51 -65 2 -184 82 -184 22 0 28
4 23 16 -3 9 -6 18 -6 20 0 2 -9 4 -20 4 -57 0 -79 82 -34 127 l27 27 34 -85
c19 -46 38 -87 42 -92 15 -15 76 38 90 78 12 35 11 45 -2 77 -24 57 -80 84
-142 69z m95 -61 c26 -26 26 -72 0 -95 -11 -10 -22 -16 -24 -14 -5 5 -56 120
-56 125 0 13 64 0 80 -16z"/>
<path d="M681 3304 c-50 -36 -68 -137 -30 -175 20 -20 23 -20 31 -5 6 11 4 23
-6 38 -27 39 6 112 48 106 22 -3 22 0 14 -121 -3 -42 1 -52 21 -68 59 -48 127
2 125 92 0 32 4 49 12 49 10 0 30 30 22 34 -4 2 -165 52 -193 60 -12 3 -31 -1
-44 -10z m133 -65 c36 -17 51 -60 34 -96 -15 -33 -62 -44 -72 -18 -6 15 3 125
10 125 2 0 14 -5 28 -11z"/>
<path d="M587 3041 c-4 -18 2 -21 52 -31 107 -21 135 -33 145 -62 7 -18 6 -35
-2 -53 -14 -30 -38 -32 -143 -10 -58 12 -74 13 -81 3 -4 -7 -6 -17 -5 -22 4
-13 187 -48 215 -41 25 6 62 59 62 90 0 11 -7 31 -16 43 -14 21 -14 22 5 22
14 0 21 6 21 18 0 16 -16 21 -97 36 -54 9 -110 20 -124 23 -20 4 -27 0 -32
-16z"/>
<path d="M4350 3010 c0 -11 5 -20 10 -20 6 0 19 -9 30 -20 27 -27 27 -85 1
-100 -32 -17 -38 -12 -56 47 -30 95 -83 127 -136 84 -32 -26 -32 -88 -1 -130
19 -26 20 -34 10 -51 -21 -33 0 -40 72 -23 36 9 82 20 103 25 52 12 71 45 62
105 -4 31 -16 55 -35 75 -33 33 -60 37 -60 8z m-73 -52 c6 -7 15 -26 21 -43 5
-16 13 -38 17 -47 6 -15 1 -18 -28 -18 -54 0 -90 54 -71 104 7 19 47 21 61 4z"/>
<path d="M540 2761 c0 -13 6 -21 18 -21 10 0 13 -3 6 -8 -40 -27 -43 -91 -6
-133 51 -58 163 -57 215 1 31 35 35 74 10 109 l-16 24 62 -6 c51 -6 63 -4 68
9 3 8 2 19 -3 24 -5 4 -87 11 -181 15 -172 7 -173 7 -173 -14z m202 -48 c21
-19 24 -62 5 -87 -14 -19 -82 -32 -121 -22 -72 18 -76 101 -6 129 25 11 102
-2 122 -20z"/>
<path d="M4210 2725 c0 -24 0 -24 96 -22 90 2 97 1 115 -22 22 -27 24 -50 7
-74 -10 -12 -37 -18 -110 -23 -88 -6 -98 -9 -98 -26 0 -19 7 -20 105 -16 93 3
107 6 127 26 28 28 31 91 5 120 -16 17 -16 20 -2 25 8 4 15 13 15 22 0 13 -20
15 -130 15 l-130 0 0 -25z"/>
<path d="M4256 2485 c-16 -9 -35 -23 -42 -33 -16 -21 -18 -76 -4 -103 8 -15 7
-19 -5 -19 -8 0 -15 -8 -15 -18 0 -16 18 -21 158 -36 86 -10 164 -19 173 -22
11 -3 18 3 22 16 6 24 2 26 -66 35 -46 6 -47 7 -32 28 20 28 19 87 -1 116 -34
47 -130 66 -188 36z m106 -35 c37 -11 68 -42 68 -68 0 -29 -48 -62 -90 -62
-100 0 -148 83 -72 125 33 17 46 18 94 5z"/>
<path d="M690 2380 c-110 -22 -117 -26 -130 -64 -12 -36 -1 -77 27 -108 10
-11 12 -18 5 -18 -7 0 -12 -9 -12 -20 0 -24 -9 -24 124 0 60 11 113 20 118 20
4 0 8 9 8 20 0 24 -15 25 -107 9 -35 -6 -74 -8 -87 -5 -31 8 -52 56 -37 84 13
24 20 27 124 43 70 12 77 15 77 36 0 26 2 26 -110 3z"/>
<path d="M775 2130 c-33 -10 -85 -26 -116 -35 -48 -13 -56 -19 -52 -35 3 -11
8 -20 11 -20 7 0 236 63 240 66 6 4 -9 44 -16 43 -4 0 -34 -9 -67 -19z"/>
<path d="M4146 2115 c-3 -8 2 -19 12 -24 9 -6 12 -11 5 -11 -23 0 -53 -43 -53
-76 0 -74 50 -120 139 -131 48 -5 52 -4 87 31 31 31 36 42 32 71 -5 41 -6 40
56 19 41 -14 50 -14 57 -3 5 8 9 17 9 20 0 6 -316 119 -331 119 -4 0 -9 -7
-13 -15z m144 -77 c38 -27 51 -54 39 -86 -13 -35 -50 -44 -109 -26 -37 11 -54
22 -65 44 -16 31 -8 73 17 83 32 13 87 6 118 -15z"/>
<path d="M510 2048 c0 -23 16 -39 33 -32 28 10 21 44 -8 44 -14 0 -25 -6 -25
-12z"/>
<path d="M753 1864 c-84 -40 -153 -77 -153 -81 0 -5 4 -14 9 -21 7 -11 18 -9
59 12 28 14 53 26 54 26 2 0 3 -19 4 -41 1 -109 161 -122 232 -19 35 52 24
115 -24 141 -14 7 -20 15 -14 19 11 7 3 41 -9 39 -3 0 -75 -34 -158 -75z m175
-21 c32 -43 -14 -116 -83 -129 -47 -8 -71 2 -85 36 -16 39 6 74 63 101 46 21
85 18 105 -8z"/>
<path d="M4051 1844 c-44 -36 -59 -94 -38 -139 9 -19 21 -35 26 -35 15 0 24
41 12 53 -31 31 13 107 61 107 51 0 52 -13 6 -99 -47 -89 -46 -94 21 -107 74
-14 138 51 128 129 -13 96 -144 152 -216 91z m169 -73 c24 -47 -8 -111 -56
-111 -35 0 -36 13 -3 74 33 60 43 67 59 37z"/>
<path d="M966 1691 c-12 -19 7 -41 33 -41 61 0 89 -64 51 -113 l-22 -28 -55
81 -55 82 -25 -24 c-62 -56 -63 -131 -2 -183 40 -33 89 -33 146 0 68 40 87 92
59 160 -22 52 -111 97 -130 66z m-12 -136 c20 -31 34 -60 31 -65 -20 -32 -105
15 -105 57 0 16 26 63 34 63 2 0 20 -25 40 -55z"/>
<path d="M3867 1563 c-17 -17 0 -36 88 -104 86 -65 97 -71 111 -57 14 14 6 23
-83 92 -101 78 -105 81 -116 69z"/>
<path d="M1134 1519 c-3 -6 -1 -16 5 -22 18 -18 15 -22 -54 -83 -62 -54 -66
-56 -84 -40 -15 14 -20 14 -30 3 -9 -11 -8 -17 5 -28 15 -12 13 -16 -17 -42
-28 -23 -31 -29 -19 -37 22 -14 35 -12 55 10 13 15 21 17 31 9 18 -15 36 -1
29 21 -4 14 12 32 65 76 38 32 72 66 75 75 12 37 -42 88 -61 58z"/>
<path d="M3809 1484 c-10 -13 -2 -25 54 -82 76 -76 85 -107 42 -140 -34 -27
-53 -20 -121 49 -61 61 -74 68 -93 46 -17 -21 139 -157 180 -157 37 0 89 50
89 85 0 18 4 22 19 18 10 -3 21 2 24 10 4 10 -26 44 -88 101 -81 74 -95 84
-106 70z"/>
<path d="M1190 1380 c-28 -28 -25 -62 13 -131 27 -51 30 -61 17 -69 -21 -13
-24 -13 -54 11 -17 13 -26 30 -26 49 0 28 -21 55 -33 43 -4 -3 -7 -21 -7 -38
0 -63 84 -129 133 -104 47 25 49 61 6 137 -27 49 -29 56 -16 70 34 34 104 -24
91 -75 -3 -11 1 -25 10 -32 13 -11 17 -9 26 14 14 36 13 45 -10 82 -36 59
-112 81 -150 43z"/>
<path d="M4110 1375 c-11 -13 -11 -19 3 -33 15 -15 19 -15 32 -1 14 14 14 17
-3 32 -17 16 -20 16 -32 2z"/>
<path d="M1377 1229 c-30 -18 -2 -40 42 -33 47 7 81 -22 81 -69 0 -60 -11 -60
-90 -2 -41 30 -78 55 -81 55 -12 0 -39 -67 -39 -96 0 -37 43 -90 84 -104 65
-21 151 39 171 121 20 83 -95 170 -168 128z m60 -170 c17 -13 20 -19 10 -26
-56 -44 -130 3 -113 72 l7 27 37 -28 c20 -15 47 -35 59 -45z"/>
<path d="M3496 1199 c-21 -17 -24 -24 -15 -35 8 -10 16 -11 29 -4 10 6 21 10
23 10 3 0 29 -32 58 -71 50 -68 52 -72 34 -85 -15 -11 -16 -17 -7 -26 9 -9 15
-9 24 0 18 18 24 15 49 -25 22 -35 23 -36 33 -14 7 17 5 29 -7 50 -12 20 -13
31 -5 39 14 14 0 34 -21 27 -12 -4 -30 12 -65 60 -43 59 -80 95 -97 95 -3 0
-18 -9 -33 -21z"/>
<path d="M3371 1123 c-68 -34 -82 -121 -31 -192 40 -57 96 -74 150 -46 72 37
89 106 45 182 -41 69 -97 89 -164 56z m104 -56 c56 -56 57 -123 1 -148 -54
-25 -113 23 -123 100 -4 32 -1 41 22 59 38 30 61 28 100 -11z"/>
<path d="M1628 1031 c-51 -92 -70 -108 -111 -93 -25 10 -34 9 -45 -2 -12 -12
-11 -16 12 -31 16 -11 35 -15 50 -11 18 4 23 2 22 -12 -3 -43 32 -9 85 83 32
55 59 103 59 107 0 4 -8 12 -18 17 -15 8 -23 -1 -54 -58z"/>
<path d="M1728 1016 c-39 -29 -4 -57 38 -30 44 29 104 -15 104 -76 0 -10 -4
-21 -8 -24 -4 -2 -43 11 -87 30 -43 19 -82 34 -86 34 -16 0 -28 -69 -18 -105
19 -67 113 -101 174 -61 55 36 83 146 49 194 -33 47 -126 69 -166 38z m68
-148 c50 -21 52 -36 10 -56 -36 -18 -81 0 -94 36 -19 56 -5 60 84 20z"/>
<path d="M3164 1020 c-12 -4 -31 -21 -43 -36 -16 -20 -24 -25 -30 -16 -9 15
-44 4 -38 -12 43 -110 93 -226 97 -226 3 0 11 4 19 9 12 8 9 23 -17 90 -18 44
-32 87 -32 95 0 26 38 56 69 56 31 0 44 -20 86 -133 21 -55 27 -61 48 -44 14
11 11 22 -23 101 -22 49 -45 95 -52 102 -18 18 -59 25 -84 14z"/>
<path d="M1950 954 c0 -9 8 -22 17 -29 15 -11 15 -18 -7 -94 -20 -71 -26 -81
-45 -81 -30 0 -40 -26 -13 -33 20 -6 21 -22 2 -71 -4 -12 0 -16 15 -16 16 0
26 10 37 35 9 24 19 33 29 29 18 -7 20 17 4 33 -8 8 -4 35 15 100 15 50 24 97
21 105 -6 15 -46 38 -65 38 -6 0 -10 -7 -10 -16z"/>
<path d="M2894 930 c-52 -21 -88 -110 -44 -110 13 0 20 7 20 20 0 50 79 80
113 42 9 -9 21 -39 28 -65 12 -43 11 -49 -7 -74 -25 -33 -74 -42 -94 -19 -14
18 -36 21 -45 5 -10 -15 23 -47 56 -54 71 -16 139 37 139 109 -1 108 -82 180
-166 146z"/>
<path d="M2086 908 c-9 -29 -27 -138 -28 -172 -1 -22 6 -43 17 -56 22 -25 79
-36 111 -21 19 9 24 8 24 -4 0 -8 9 -15 20 -15 11 0 20 1 20 3 0 2 9 52 20
112 24 133 24 132 1 138 -17 4 -21 -5 -35 -81 -18 -98 -35 -122 -83 -122 -51
0 -59 27 -39 132 9 46 16 88 16 91 0 13 -41 7 -44 -5z"/>
<path d="M2754 863 c18 -124 18 -144 2 -168 -12 -18 -25 -25 -50 -25 -43 0
-52 12 -60 80 -15 125 -17 130 -38 130 -19 0 -20 -4 -13 -77 9 -104 22 -151
45 -163 27 -15 83 -12 106 5 10 8 22 15 25 15 4 0 9 -27 13 -59 6 -52 9 -58
26 -54 24 6 24 -7 3 191 -17 159 -17 162 -41 162 -22 0 -23 -3 -18 -37z"/>
<path d="M2355 878 c-5 -16 -25 -268 -25 -314 0 -27 4 -34 20 -34 25 0 26 8
39 195 8 116 8 151 -2 157 -17 11 -27 10 -32 -4z"/>
</g>
</svg>
